<mxfile host="app.diagrams.net" modified="2022-11-02T15:05:35.438Z" agent="5.0 (Macintosh; Intel Mac OS X 10_15_7) AppleWebKit/537.36 (KHTML, like Gecko) Chrome/106.0.0.0 Safari/537.36" etag="ByzU4T4WoU3G3wRGBVTS" version="20.5.1" type="github">
  <diagram id="cunmrRQe3pm6SeLoBSLd" name="Page-1">
    <mxGraphModel dx="12150" dy="6980" grid="1" gridSize="10" guides="1" tooltips="1" connect="1" arrows="1" fold="1" page="1" pageScale="1" pageWidth="850" pageHeight="1100" math="0" shadow="0">
      <root>
        <mxCell id="0" />
        <mxCell id="1" parent="0" />
        <mxCell id="KL4kwilNAHB5f6T94Mk6-11" value="" style="endArrow=classic;html=1;rounded=0;fontSize=15;entryX=0;entryY=0.5;entryDx=0;entryDy=0;" parent="1" source="KL4kwilNAHB5f6T94Mk6-6" target="KL4kwilNAHB5f6T94Mk6-10" edge="1">
          <mxGeometry width="50" height="50" relative="1" as="geometry">
            <mxPoint x="520" y="930" as="sourcePoint" />
            <mxPoint x="570" y="880" as="targetPoint" />
          </mxGeometry>
        </mxCell>
        <mxCell id="KL4kwilNAHB5f6T94Mk6-12" value="RUN" style="edgeLabel;html=1;align=center;verticalAlign=middle;resizable=0;points=[];fontSize=15;" parent="KL4kwilNAHB5f6T94Mk6-11" vertex="1" connectable="0">
          <mxGeometry x="-0.0236" y="-2" relative="1" as="geometry">
            <mxPoint as="offset" />
          </mxGeometry>
        </mxCell>
        <mxCell id="KL4kwilNAHB5f6T94Mk6-13" value="" style="group" parent="1" vertex="1" connectable="0">
          <mxGeometry x="1060" y="870" width="470" height="320" as="geometry" />
        </mxCell>
        <mxCell id="KL4kwilNAHB5f6T94Mk6-9" value="&lt;font style=&quot;font-size: 17px;&quot;&gt;Jobs&lt;br&gt;&lt;/font&gt;" style="rounded=0;whiteSpace=wrap;html=1;" parent="KL4kwilNAHB5f6T94Mk6-13" vertex="1">
          <mxGeometry width="110" height="50" as="geometry" />
        </mxCell>
        <mxCell id="KL4kwilNAHB5f6T94Mk6-10" value="&lt;ul style=&quot;text-align: left; font-size: 15px;&quot;&gt;&lt;li style=&quot;&quot;&gt;&lt;font face=&quot;-apple-system, system-ui, Segoe UI, Ubuntu, sans-serif, Apple Color Emoji, Segoe UI Emoji, Segoe UI Symbol, Noto Color Emoji&quot; color=&quot;#333333&quot;&gt;&lt;span style=&quot;background-color: rgb(255, 255, 255);&quot;&gt;&lt;b&gt;Unit of execution&lt;/b&gt; created by the run of a Pipeline,&amp;nbsp;&lt;/span&gt;&lt;/font&gt;procedure, task, or application process&lt;/li&gt;&lt;li style=&quot;&quot;&gt;Contains details of the action being executed including: status of the steps being run, the log output, and information on the resources that the steps are run run upon&lt;/li&gt;&lt;/ul&gt;" style="rounded=0;whiteSpace=wrap;html=1;fontSize=14;" parent="KL4kwilNAHB5f6T94Mk6-13" vertex="1">
          <mxGeometry y="50" width="410" height="170" as="geometry" />
        </mxCell>
        <mxCell id="KL4kwilNAHB5f6T94Mk6-14" value="" style="group" parent="1" vertex="1" connectable="0">
          <mxGeometry x="470" y="1020" width="480" height="410" as="geometry" />
        </mxCell>
        <mxCell id="KL4kwilNAHB5f6T94Mk6-5" value="&lt;font style=&quot;font-size: 17px;&quot;&gt;Pipelines&lt;br&gt;&lt;/font&gt;" style="rounded=0;whiteSpace=wrap;html=1;" parent="KL4kwilNAHB5f6T94Mk6-14" vertex="1">
          <mxGeometry width="110" height="50" as="geometry" />
        </mxCell>
        <mxCell id="KL4kwilNAHB5f6T94Mk6-6" value="&lt;ul style=&quot;text-align: left; font-size: 15px;&quot;&gt;&lt;li style=&quot;&quot;&gt;It is an orchestrated set of&lt;/li&gt;&lt;ul&gt;&lt;li style=&quot;&quot;&gt;Stages (can be skipped and rerunnable): Phases within the SDLF of an app&lt;/li&gt;&lt;li style=&quot;&quot;&gt;Tasks (can be skipped): Individual Processes/Steps within the Stage&amp;nbsp;&lt;/li&gt;&lt;li style=&quot;&quot;&gt;Entry and Exit Gates (optional): Control the start and the end of a pipeline. It could be linked to an Approval&lt;/li&gt;&lt;ul&gt;&lt;li style=&quot;&quot;&gt;It requires to be successful to pass to the following gate&lt;/li&gt;&lt;li style=&quot;&quot;&gt;Types: Manual, Automatic and Complex&lt;/li&gt;&lt;/ul&gt;&lt;/ul&gt;&lt;li style=&quot;&quot;&gt;Benefits:&lt;/li&gt;&lt;ul&gt;&lt;li style=&quot;&quot;&gt;Visibility (Feedback): It reports its overall status, an completed task&lt;/li&gt;&lt;li style=&quot;&quot;&gt;Control: QA&lt;/li&gt;&lt;/ul&gt;&lt;li style=&quot;&quot;&gt;Types:&lt;/li&gt;&lt;ul&gt;&lt;li style=&quot;&quot;&gt;Deployment&lt;/li&gt;&lt;li style=&quot;&quot;&gt;Releases -&amp;gt; It adds Releases Scheduling (Calendar) and Tracking Functionality (Planned vs Actual Dashboard)&lt;/li&gt;&lt;/ul&gt;&lt;/ul&gt;" style="rounded=0;whiteSpace=wrap;html=1;fontSize=14;" parent="KL4kwilNAHB5f6T94Mk6-14" vertex="1">
          <mxGeometry y="50" width="480" height="360" as="geometry" />
        </mxCell>
        <mxCell id="KL4kwilNAHB5f6T94Mk6-18" value="" style="endArrow=classic;html=1;rounded=0;fontSize=15;exitX=0.5;exitY=0;exitDx=0;exitDy=0;" parent="1" source="2sUulGhKF5afohLX6DZR-32" target="KL4kwilNAHB5f6T94Mk6-6" edge="1">
          <mxGeometry width="50" height="50" relative="1" as="geometry">
            <mxPoint x="350" y="840" as="sourcePoint" />
            <mxPoint x="712.8421052631581" y="640" as="targetPoint" />
          </mxGeometry>
        </mxCell>
        <mxCell id="KL4kwilNAHB5f6T94Mk6-24" value="Modify Behavior" style="edgeLabel;html=1;align=center;verticalAlign=middle;resizable=0;points=[];fontSize=15;" parent="KL4kwilNAHB5f6T94Mk6-18" vertex="1" connectable="0">
          <mxGeometry x="-0.157" y="-4" relative="1" as="geometry">
            <mxPoint as="offset" />
          </mxGeometry>
        </mxCell>
        <mxCell id="KL4kwilNAHB5f6T94Mk6-20" value="" style="group" parent="1" vertex="1" connectable="0">
          <mxGeometry x="1600" y="960" width="590" height="440" as="geometry" />
        </mxCell>
        <mxCell id="2sUulGhKF5afohLX6DZR-43" value="" style="group" parent="KL4kwilNAHB5f6T94Mk6-20" vertex="1" connectable="0">
          <mxGeometry y="36.62089055347483" width="590" height="403.3791094465252" as="geometry" />
        </mxCell>
        <mxCell id="KL4kwilNAHB5f6T94Mk6-21" value="&lt;font style=&quot;font-size: 17px;&quot;&gt;Procedures&lt;br&gt;&lt;/font&gt;" style="rounded=0;whiteSpace=wrap;html=1;" parent="2sUulGhKF5afohLX6DZR-43" vertex="1">
          <mxGeometry width="158.29268292682926" height="91.67707032875572" as="geometry" />
        </mxCell>
        <mxCell id="KL4kwilNAHB5f6T94Mk6-22" value="&lt;ul style=&quot;text-align: left;&quot;&gt;&lt;li style=&quot;&quot;&gt;&lt;font style=&quot;font-size: 14px;&quot;&gt;&lt;span style=&quot;color: rgb(51, 51, 51); font-family: -apple-system, &amp;quot;system-ui&amp;quot;, &amp;quot;Segoe UI&amp;quot;, Ubuntu, sans-serif, &amp;quot;Apple Color Emoji&amp;quot;, &amp;quot;Segoe UI Emoji&amp;quot;, &amp;quot;Segoe UI Symbol&amp;quot;, &amp;quot;Noto Color Emoji&amp;quot;; background-color: rgb(255, 255, 255);&quot;&gt;Define the functions you wish to execute within a Project&lt;/span&gt;&lt;br&gt;&lt;/font&gt;&lt;/li&gt;&lt;li style=&quot;&quot;&gt;&lt;span style=&quot;color: rgb(51, 51, 51); font-family: -apple-system, &amp;quot;system-ui&amp;quot;, &amp;quot;Segoe UI&amp;quot;, Ubuntu, sans-serif, &amp;quot;Apple Color Emoji&amp;quot;, &amp;quot;Segoe UI Emoji&amp;quot;, &amp;quot;Segoe UI Symbol&amp;quot;, &amp;quot;Noto Color Emoji&amp;quot;; background-color: rgb(255, 255, 255);&quot;&gt;&lt;font size=&quot;3&quot;&gt;It can be called from within Application processes, pipelines, or directly executed&lt;br&gt;&lt;/font&gt;&lt;/span&gt;&lt;/li&gt;&lt;li style=&quot;&quot;&gt;&lt;font size=&quot;3&quot;&gt;&lt;span style=&quot;color: rgb(51, 51, 51); font-family: -apple-system, system-ui, &amp;quot;Segoe UI&amp;quot;, Ubuntu, sans-serif, &amp;quot;Apple Color Emoji&amp;quot;, &amp;quot;Segoe UI Emoji&amp;quot;, &amp;quot;Segoe UI Symbol&amp;quot;, &amp;quot;Noto Color Emoji&amp;quot;; background-color: initial;&quot;&gt;Procedures contain:&lt;/span&gt;&lt;br&gt;&lt;/font&gt;&lt;/li&gt;&lt;ul&gt;&lt;li style=&quot;&quot;&gt;&lt;span style=&quot;color: rgb(51, 51, 51); font-family: -apple-system, system-ui, &amp;quot;Segoe UI&amp;quot;, Ubuntu, sans-serif, &amp;quot;Apple Color Emoji&amp;quot;, &amp;quot;Segoe UI Emoji&amp;quot;, &amp;quot;Segoe UI Symbol&amp;quot;, &amp;quot;Noto Color Emoji&amp;quot;; background-color: initial;&quot;&gt;&lt;font size=&quot;3&quot;&gt;Steps: Actions to be taken within a procedure&lt;/font&gt;&lt;/span&gt;&lt;/li&gt;&lt;li style=&quot;&quot;&gt;&lt;span style=&quot;color: rgb(51, 51, 51); font-family: -apple-system, system-ui, &amp;quot;Segoe UI&amp;quot;, Ubuntu, sans-serif, &amp;quot;Apple Color Emoji&amp;quot;, &amp;quot;Segoe UI Emoji&amp;quot;, &amp;quot;Segoe UI Symbol&amp;quot;, &amp;quot;Noto Color Emoji&amp;quot;; background-color: initial;&quot;&gt;&lt;font size=&quot;3&quot;&gt;Parameters: Arguments passed in during procedure execution; allows the user to enter information at runtime.&lt;/font&gt;&lt;/span&gt;&lt;/li&gt;&lt;li style=&quot;&quot;&gt;&lt;span style=&quot;color: rgb(51, 51, 51); font-family: -apple-system, system-ui, &amp;quot;Segoe UI&amp;quot;, Ubuntu, sans-serif, &amp;quot;Apple Color Emoji&amp;quot;, &amp;quot;Segoe UI Emoji&amp;quot;, &amp;quot;Segoe UI Symbol&amp;quot;, &amp;quot;Noto Color Emoji&amp;quot;; background-color: initial;&quot;&gt;&lt;font size=&quot;3&quot;&gt;Email Notifiers: Email notifications sent on the start and completion of a procedure&lt;/font&gt;&lt;/span&gt;&lt;/li&gt;&lt;li style=&quot;&quot;&gt;&lt;font size=&quot;3&quot; face=&quot;-apple-system, system-ui, Segoe UI, Ubuntu, sans-serif, Apple Color Emoji, Segoe UI Emoji, Segoe UI Symbol, Noto Color Emoji&quot; color=&quot;#333333&quot;&gt;Custom Properties: Additional information that could be used by the procedure; allows properties to be created on the procedure to store data related to the procedure or steps.&lt;/font&gt;&lt;/li&gt;&lt;/ul&gt;&lt;li&gt;&lt;font size=&quot;3&quot; face=&quot;-apple-system, system-ui, Segoe UI, Ubuntu, sans-serif, Apple Color Emoji, Segoe UI Emoji, Segoe UI Symbol, Noto Color Emoji&quot; color=&quot;#333333&quot;&gt;Historically, procedures appeared much earlier than pipelines.&lt;br&gt;&lt;/font&gt;&lt;/li&gt;&lt;/ul&gt;" style="rounded=0;whiteSpace=wrap;html=1;fontSize=14;" parent="2sUulGhKF5afohLX6DZR-43" vertex="1">
          <mxGeometry y="91.67707032875572" width="590" height="311.70203911776946" as="geometry" />
        </mxCell>
        <mxCell id="KL4kwilNAHB5f6T94Mk6-25" value="" style="endArrow=classic;html=1;rounded=0;fontSize=15;exitX=0.5;exitY=0;exitDx=0;exitDy=0;" parent="1" source="KL4kwilNAHB5f6T94Mk6-22" target="KL4kwilNAHB5f6T94Mk6-17" edge="1">
          <mxGeometry width="50" height="50" relative="1" as="geometry">
            <mxPoint x="300" y="890" as="sourcePoint" />
            <mxPoint x="300" y="790" as="targetPoint" />
          </mxGeometry>
        </mxCell>
        <mxCell id="2sUulGhKF5afohLX6DZR-15" value="&lt;span style=&quot;font-size: 15px;&quot;&gt;Logically&lt;/span&gt;&lt;br style=&quot;font-size: 15px;&quot;&gt;&lt;span style=&quot;font-size: 15px;&quot;&gt;Stored in&lt;/span&gt;" style="edgeLabel;html=1;align=center;verticalAlign=middle;resizable=0;points=[];fontSize=14;" parent="KL4kwilNAHB5f6T94Mk6-25" vertex="1" connectable="0">
          <mxGeometry x="0.0296" y="2" relative="1" as="geometry">
            <mxPoint as="offset" />
          </mxGeometry>
        </mxCell>
        <mxCell id="KL4kwilNAHB5f6T94Mk6-28" value="" style="endArrow=classic;html=1;rounded=0;fontSize=15;" parent="1" source="KL4kwilNAHB5f6T94Mk6-6" target="KL4kwilNAHB5f6T94Mk6-17" edge="1">
          <mxGeometry width="50" height="50" relative="1" as="geometry">
            <mxPoint x="429.99" y="631.8700000000001" as="sourcePoint" />
            <mxPoint x="344.2907219992085" y="540.0000000000002" as="targetPoint" />
          </mxGeometry>
        </mxCell>
        <mxCell id="KL4kwilNAHB5f6T94Mk6-29" value="Logically &lt;br&gt;Stored in" style="edgeLabel;html=1;align=center;verticalAlign=middle;resizable=0;points=[];fontSize=15;" parent="KL4kwilNAHB5f6T94Mk6-28" vertex="1" connectable="0">
          <mxGeometry x="-0.157" y="-4" relative="1" as="geometry">
            <mxPoint as="offset" />
          </mxGeometry>
        </mxCell>
        <mxCell id="2sUulGhKF5afohLX6DZR-12" value="" style="group" parent="1" vertex="1" connectable="0">
          <mxGeometry x="2760" y="420" width="660" height="800" as="geometry" />
        </mxCell>
        <mxCell id="2sUulGhKF5afohLX6DZR-3" value="&lt;div style=&quot;text-align: left;&quot;&gt;&lt;ul style=&quot;&quot;&gt;&lt;li style=&quot;font-size: 17px;&quot;&gt;&lt;span style=&quot;color: rgb(51, 51, 51); font-family: -apple-system, &amp;quot;system-ui&amp;quot;, &amp;quot;Segoe UI&amp;quot;, Ubuntu, sans-serif, &amp;quot;Apple Color Emoji&amp;quot;, &amp;quot;Segoe UI Emoji&amp;quot;, &amp;quot;Segoe UI Symbol&amp;quot;, &amp;quot;Noto Color Emoji&amp;quot;; background-color: rgb(255, 255, 255);&quot;&gt;ACLs allow you to control &lt;b&gt;who, what&lt;/b&gt; (can see, modify, execute and change permissions) and &lt;b&gt;where &lt;/b&gt;(on the objects defined in CloudBees CD/RO)&lt;/span&gt;&lt;/li&gt;&lt;li style=&quot;font-size: 17px;&quot;&gt;&lt;span style=&quot;color: rgb(51, 51, 51); font-family: -apple-system, &amp;quot;system-ui&amp;quot;, &amp;quot;Segoe UI&amp;quot;, Ubuntu, sans-serif, &amp;quot;Apple Color Emoji&amp;quot;, &amp;quot;Segoe UI Emoji&amp;quot;, &amp;quot;Segoe UI Symbol&amp;quot;, &amp;quot;Noto Color Emoji&amp;quot;; background-color: rgb(255, 255, 255);&quot;&gt;Uses Cases:&amp;nbsp;&lt;/span&gt;Isolating different groups and roles, Protecting mission-critical resources&lt;/li&gt;&lt;li style=&quot;font-size: 17px;&quot;&gt;Access: Administration &amp;gt; System Access Control&lt;/li&gt;&lt;ul style=&quot;font-size: 17px;&quot;&gt;&lt;li&gt;&lt;span style=&quot;color: rgb(51, 51, 51); font-family: -apple-system, &amp;quot;system-ui&amp;quot;, &amp;quot;Segoe UI&amp;quot;, Ubuntu, sans-serif, &amp;quot;Apple Color Emoji&amp;quot;, &amp;quot;Segoe UI Emoji&amp;quot;, &amp;quot;Segoe UI Symbol&amp;quot;, &amp;quot;Noto Color Emoji&amp;quot;; background-color: rgb(255, 255, 255);&quot;&gt;&lt;b&gt;&lt;i&gt;server&lt;/i&gt;&lt;/b&gt; is where the top-level permissions are defined.&lt;br&gt;&lt;/span&gt;&lt;/li&gt;&lt;/ul&gt;&lt;li style=&quot;font-size: 17px;&quot;&gt;&lt;div style=&quot;box-sizing: border-box; margin: 14px 0px 0px; color: rgb(51, 51, 51); font-family: -apple-system, &amp;quot;system-ui&amp;quot;, &amp;quot;Segoe UI&amp;quot;, Ubuntu, sans-serif, &amp;quot;Apple Color Emoji&amp;quot;, &amp;quot;Segoe UI Emoji&amp;quot;, &amp;quot;Segoe UI Symbol&amp;quot;, &amp;quot;Noto Color Emoji&amp;quot;; font-size: 16px; background-color: rgb(255, 255, 255);&quot; class=&quot;paragraph&quot;&gt;&lt;p style=&quot;box-sizing: border-box; margin: 0px;&quot;&gt;Rule resolution: Checks these rules (in order) for the ACEs that it located for the user or group.&amp;nbsp;&lt;/p&gt;&lt;/div&gt;&lt;/li&gt;&lt;ul style=&quot;font-size: 17px;&quot;&gt;&lt;li&gt;&lt;span style=&quot;background-color: initial; font-size: 17px;&quot;&gt;If user is “admin”, then Allow (and stop checking)&lt;/span&gt;&lt;/li&gt;&lt;li&gt;If there are any Deny entries for the ACEs, then Deny (and stop checking)&lt;/li&gt;&lt;ul&gt;&lt;li&gt;Deny takes precedence when a user appears in multiple ACEs in an ACL&lt;/li&gt;&lt;/ul&gt;&lt;li&gt;&lt;span style=&quot;background-color: initial;&quot;&gt;If there is an Allow entry for the user, then Allow (and stop checking)&lt;/span&gt;&lt;/li&gt;&lt;ul&gt;&lt;li&gt;To be allowed access, at least one of the matching entries must specify Allow and none of the entries can be Deny.&lt;/li&gt;&lt;/ul&gt;&lt;li&gt;&lt;span style=&quot;background-color: initial;&quot;&gt;If Inherit from a parent object, check the privileges for the parent object&lt;/span&gt;&lt;/li&gt;&lt;ul&gt;&lt;li&gt;The same process as above is run on the Parent object and recursively goes up the inheritance chain until it reaches the root (Server) or an ancestor ACL where inheritance has been broken.&lt;/li&gt;&lt;li&gt;If Inherit is at the top-level of the chain, then Deny.&lt;/li&gt;&lt;/ul&gt;&lt;li&gt;&lt;span style=&quot;background-color: initial;&quot;&gt;If none of the above, Deny.&lt;/span&gt;&lt;br&gt;&lt;/li&gt;&lt;/ul&gt;&lt;li style=&quot;&quot;&gt;&lt;span style=&quot;font-size: 17px;&quot;&gt;Best Practices&lt;/span&gt;&lt;/li&gt;&lt;ul&gt;&lt;li&gt;&lt;p style=&quot;font-size: 17px; background-color: initial; box-sizing: border-box; margin: 0px; display: inline !important;&quot;&gt;Don’t run processes and jobs as an “admin” user.&lt;/p&gt;&lt;/li&gt;&lt;li&gt;&lt;p style=&quot;font-size: 17px; background-color: initial; box-sizing: border-box; margin: 0px; display: inline !important;&quot;&gt;Use groups for ACEs instead users&lt;/p&gt;.&lt;/li&gt;&lt;li&gt;&lt;p style=&quot;font-size: 17px; background-color: initial; box-sizing: border-box; margin: 0px; display: inline !important;&quot;&gt;Avoid the use of Deny and Break Inheritance&lt;/p&gt;&lt;/li&gt;&lt;li&gt;&lt;span style=&quot;font-size: 17px; background-color: initial;&quot;&gt;Use Factory Procedures or DSL to maintain ACLs.&amp;nbsp;&lt;/span&gt;&lt;/li&gt;&lt;li&gt;&lt;p style=&quot;font-size: 17px; background-color: initial; box-sizing: border-box; margin: 0px; display: inline !important;&quot;&gt;Document ACLs: B&lt;/p&gt;&lt;/li&gt;&lt;li&gt;&lt;span style=&quot;font-size: 17px; background-color: initial;&quot;&gt;Think carefully about what ACLs you are defining, as having thousands of ACLs can become a maintenance issue and introduce performance issues.&lt;/span&gt;&lt;/li&gt;&lt;/ul&gt;&lt;/ul&gt;&lt;/div&gt;&lt;div style=&quot;text-align: left;&quot;&gt;&lt;br&gt;&lt;/div&gt;" style="rounded=0;whiteSpace=wrap;html=1;fontSize=14;" parent="2sUulGhKF5afohLX6DZR-12" vertex="1">
          <mxGeometry y="70.17543859649122" width="660" height="729.8245614035087" as="geometry" />
        </mxCell>
        <mxCell id="2sUulGhKF5afohLX6DZR-10" value="&lt;font style=&quot;font-size: 17px;&quot;&gt;&lt;span style=&quot;box-sizing: border-box; font-weight: bolder; color: rgb(51, 51, 51); font-family: -apple-system, &amp;quot;system-ui&amp;quot;, &amp;quot;Segoe UI&amp;quot;, Ubuntu, sans-serif, &amp;quot;Apple Color Emoji&amp;quot;, &amp;quot;Segoe UI Emoji&amp;quot;, &amp;quot;Segoe UI Symbol&amp;quot;, &amp;quot;Noto Color Emoji&amp;quot;; font-size: 16px; text-align: left; background-color: rgb(255, 255, 255);&quot;&gt;Access Control List (ACL)&lt;/span&gt;&lt;br&gt;&lt;/font&gt;" style="rounded=0;whiteSpace=wrap;html=1;" parent="2sUulGhKF5afohLX6DZR-12" vertex="1">
          <mxGeometry y="19.696542326690505" width="225.36" height="50.477669902912616" as="geometry" />
        </mxCell>
        <mxCell id="2sUulGhKF5afohLX6DZR-13" value="" style="group" parent="1" vertex="1" connectable="0">
          <mxGeometry x="1070" y="340" width="410" height="260" as="geometry" />
        </mxCell>
        <mxCell id="KL4kwilNAHB5f6T94Mk6-15" value="" style="group" parent="2sUulGhKF5afohLX6DZR-13" vertex="1" connectable="0">
          <mxGeometry width="410" height="260" as="geometry" />
        </mxCell>
        <mxCell id="KL4kwilNAHB5f6T94Mk6-16" value="&lt;font style=&quot;font-size: 17px;&quot;&gt;Project&lt;br&gt;&lt;/font&gt;" style="rounded=0;whiteSpace=wrap;html=1;" parent="KL4kwilNAHB5f6T94Mk6-15" vertex="1">
          <mxGeometry width="110" height="59.09090909090909" as="geometry" />
        </mxCell>
        <mxCell id="KL4kwilNAHB5f6T94Mk6-17" value="&lt;ul style=&quot;text-align: left;&quot;&gt;&lt;li style=&quot;&quot;&gt;&lt;span style=&quot;font-size: 16px; color: rgb(51, 51, 51); font-family: -apple-system, &amp;quot;system-ui&amp;quot;, &amp;quot;Segoe UI&amp;quot;, Ubuntu, sans-serif, &amp;quot;Apple Color Emoji&amp;quot;, &amp;quot;Segoe UI Emoji&amp;quot;, &amp;quot;Segoe UI Symbol&amp;quot;, &amp;quot;Noto Color Emoji&amp;quot;; background-color: rgb(255, 255, 255);&quot;&gt;The&amp;nbsp;&lt;/span&gt;&lt;span style=&quot;font-size: 16px; box-sizing: border-box; font-weight: bolder; color: rgb(51, 51, 51); font-family: -apple-system, &amp;quot;system-ui&amp;quot;, &amp;quot;Segoe UI&amp;quot;, Ubuntu, sans-serif, &amp;quot;Apple Color Emoji&amp;quot;, &amp;quot;Segoe UI Emoji&amp;quot;, &amp;quot;Segoe UI Symbol&amp;quot;, &amp;quot;Noto Color Emoji&amp;quot;; background-color: rgb(255, 255, 255);&quot;&gt;Project&lt;/span&gt;&lt;span style=&quot;background-color: rgb(255, 255, 255);&quot;&gt;&lt;font face=&quot;-apple-system, system-ui, Segoe UI, Ubuntu, sans-serif, Apple Color Emoji, Segoe UI Emoji, Segoe UI Symbol, Noto Color Emoji&quot; color=&quot;#333333&quot;&gt;&lt;span style=&quot;font-size: 16px;&quot;&gt;&amp;nbsp;is the highest-level container in CloudBees CD/RO within which other structures/objects are stored logically&amp;nbsp;(e.g. per Development&amp;nbsp;Team)&lt;/span&gt;&lt;/font&gt;&lt;/span&gt;&lt;/li&gt;&lt;li style=&quot;font-size: 15px;&quot;&gt;Type of Objects inside it: Procedures, Applications, Pipelines, Environments, Releases.&amp;nbsp;&lt;/li&gt;&lt;li style=&quot;font-size: 15px;&quot;&gt;Each projects has linked: Credentials + Properties associated -- Objects can inherit them.&lt;br&gt;&lt;/li&gt;&lt;li style=&quot;font-size: 15px;&quot;&gt;Access:&amp;nbsp;&lt;span style=&quot;box-sizing: border-box; font-weight: bolder; color: rgb(51, 51, 51); font-family: -apple-system, &amp;quot;system-ui&amp;quot;, &amp;quot;Segoe UI&amp;quot;, Ubuntu, sans-serif, &amp;quot;Apple Color Emoji&amp;quot;, &amp;quot;Segoe UI Emoji&amp;quot;, &amp;quot;Segoe UI Symbol&amp;quot;, &amp;quot;Noto Color Emoji&amp;quot;; font-size: 16px; background-color: rgb(255, 255, 255);&quot; class=&quot;menu&quot;&gt;DevOps Essentials&lt;/span&gt;&lt;span style=&quot;color: rgb(51, 51, 51); font-family: -apple-system, &amp;quot;system-ui&amp;quot;, &amp;quot;Segoe UI&amp;quot;, Ubuntu, sans-serif, &amp;quot;Apple Color Emoji&amp;quot;, &amp;quot;Segoe UI Emoji&amp;quot;, &amp;quot;Segoe UI Symbol&amp;quot;, &amp;quot;Noto Color Emoji&amp;quot;; font-size: 16px; background-color: rgb(255, 255, 255);&quot;&gt;&amp;nbsp;&lt;/span&gt;&lt;span style=&quot;box-sizing: border-box; -webkit-font-smoothing: antialiased; display: inline-block; font-variant-numeric: normal; font-variant-east-asian: normal; text-rendering: auto; line-height: 1; font-family: &amp;quot;Font Awesome 5 Free&amp;quot;; font-weight: 900; color: rgb(51, 51, 51); font-size: 16px; background-color: rgb(255, 255, 255);&quot; class=&quot;fa fa-angle-right caret&quot;&gt;&lt;/span&gt;&lt;span style=&quot;color: rgb(51, 51, 51); font-family: -apple-system, &amp;quot;system-ui&amp;quot;, &amp;quot;Segoe UI&amp;quot;, Ubuntu, sans-serif, &amp;quot;Apple Color Emoji&amp;quot;, &amp;quot;Segoe UI Emoji&amp;quot;, &amp;quot;Segoe UI Symbol&amp;quot;, &amp;quot;Noto Color Emoji&amp;quot;; font-size: 16px; background-color: rgb(255, 255, 255);&quot;&gt;&amp;nbsp;&lt;/span&gt;&lt;span style=&quot;box-sizing: border-box; font-weight: bolder; color: rgb(51, 51, 51); font-family: -apple-system, &amp;quot;system-ui&amp;quot;, &amp;quot;Segoe UI&amp;quot;, Ubuntu, sans-serif, &amp;quot;Apple Color Emoji&amp;quot;, &amp;quot;Segoe UI Emoji&amp;quot;, &amp;quot;Segoe UI Symbol&amp;quot;, &amp;quot;Noto Color Emoji&amp;quot;; font-size: 16px; background-color: rgb(255, 255, 255);&quot; class=&quot;menuitem&quot;&gt;Projects&lt;/span&gt;&lt;/li&gt;&lt;li style=&quot;&quot;&gt;&lt;font face=&quot;-apple-system, system-ui, Segoe UI, Ubuntu, sans-serif, Apple Color Emoji, Segoe UI Emoji, Segoe UI Symbol, Noto Color Emoji&quot; color=&quot;#333333&quot;&gt;&lt;span style=&quot;font-size: 16px; background-color: rgb(255, 255, 255);&quot;&gt;It can be restricted via ACL&lt;/span&gt;&lt;/font&gt;&lt;/li&gt;&lt;/ul&gt;" style="rounded=0;whiteSpace=wrap;html=1;fontSize=14;" parent="2sUulGhKF5afohLX6DZR-13" vertex="1">
          <mxGeometry y="50" width="410" height="210" as="geometry" />
        </mxCell>
        <mxCell id="2sUulGhKF5afohLX6DZR-16" value="" style="group" parent="1" vertex="1" connectable="0">
          <mxGeometry x="1660" y="1650" width="490" height="330.45" as="geometry" />
        </mxCell>
        <mxCell id="2sUulGhKF5afohLX6DZR-17" value="&lt;font style=&quot;font-size: 17px;&quot;&gt;Steps&lt;br&gt;&lt;/font&gt;" style="rounded=0;whiteSpace=wrap;html=1;" parent="2sUulGhKF5afohLX6DZR-16" vertex="1">
          <mxGeometry y="30" width="122.5" height="45.1" as="geometry" />
        </mxCell>
        <mxCell id="2sUulGhKF5afohLX6DZR-18" value="&lt;ul style=&quot;text-align: left; font-size: 15px;&quot;&gt;&lt;li style=&quot;&quot;&gt;&lt;font face=&quot;-apple-system, system-ui, Segoe UI, Ubuntu, sans-serif, Apple Color Emoji, Segoe UI Emoji, Segoe UI Symbol, Noto Color Emoji&quot; color=&quot;#333333&quot;&gt;&lt;span style=&quot;background-color: rgb(255, 255, 255);&quot;&gt;Definition of &lt;b&gt;commands &lt;/b&gt;to be execute &lt;b&gt;on a resource&lt;/b&gt; (SCM checkout, run script, etc.)&lt;/span&gt;&lt;/font&gt;&lt;/li&gt;&lt;li style=&quot;&quot;&gt;&lt;font face=&quot;-apple-system, system-ui, Segoe UI, Ubuntu, sans-serif, Apple Color Emoji, Segoe UI Emoji, Segoe UI Symbol, Noto Color Emoji&quot; color=&quot;#333333&quot;&gt;&lt;span style=&quot;background-color: rgb(255, 255, 255);&quot;&gt;Options:&lt;/span&gt;&lt;/font&gt;&lt;/li&gt;&lt;ul&gt;&lt;li style=&quot;&quot;&gt;&lt;font face=&quot;-apple-system, system-ui, Segoe UI, Ubuntu, sans-serif, Apple Color Emoji, Segoe UI Emoji, Segoe UI Symbol, Noto Color Emoji&quot; color=&quot;#333333&quot;&gt;&lt;span style=&quot;background-color: rgb(255, 255, 255);&quot;&gt;Pre-conditions:&amp;nbsp;&lt;/span&gt;&lt;/font&gt;will wait to run the step until a certain condition is true&lt;/li&gt;&lt;li style=&quot;&quot;&gt;&lt;font face=&quot;-apple-system, system-ui, Segoe UI, Ubuntu, sans-serif, Apple Color Emoji, Segoe UI Emoji, Segoe UI Symbol, Noto Color Emoji&quot; color=&quot;#333333&quot;&gt;&lt;span style=&quot;background-color: rgb(255, 255, 255);&quot;&gt;Run conditions:&amp;nbsp;&lt;/span&gt;&lt;/font&gt;will wait to run the step until a certain condition is true&lt;/li&gt;&lt;li style=&quot;&quot;&gt;Post-processor: Error handling, Regex pattern&lt;/li&gt;&lt;li style=&quot;&quot;&gt;&lt;font face=&quot;-apple-system, system-ui, Segoe UI, Ubuntu, sans-serif, Apple Color Emoji, Segoe UI Emoji, Segoe UI Symbol, Noto Color Emoji&quot; color=&quot;#333333&quot;&gt;&lt;span style=&quot;background-color: rgb(255, 255, 255);&quot;&gt;Time limits&lt;/span&gt;&lt;/font&gt;&lt;/li&gt;&lt;li style=&quot;&quot;&gt;&lt;font face=&quot;-apple-system, system-ui, Segoe UI, Ubuntu, sans-serif, Apple Color Emoji, Segoe UI Emoji, Segoe UI Symbol, Noto Color Emoji&quot; color=&quot;#333333&quot;&gt;&lt;span style=&quot;background-color: rgb(255, 255, 255);&quot;&gt;Workspace to use&lt;/span&gt;&lt;/font&gt;&lt;/li&gt;&lt;li style=&quot;&quot;&gt;&lt;font face=&quot;-apple-system, system-ui, Segoe UI, Ubuntu, sans-serif, Apple Color Emoji, Segoe UI Emoji, Segoe UI Symbol, Noto Color Emoji&quot; color=&quot;#333333&quot;&gt;&lt;span style=&quot;background-color: rgb(255, 255, 255);&quot;&gt;Resources&lt;/span&gt;&lt;/font&gt;&lt;/li&gt;&lt;/ul&gt;&lt;li&gt;&lt;font face=&quot;-apple-system, system-ui, Segoe UI, Ubuntu, sans-serif, Apple Color Emoji, Segoe UI Emoji, Segoe UI Symbol, Noto Color Emoji&quot; color=&quot;#333333&quot;&gt;Options can be inherit from Parent (project)&lt;/font&gt;&lt;/li&gt;&lt;/ul&gt;" style="rounded=0;whiteSpace=wrap;html=1;fontSize=14;" parent="2sUulGhKF5afohLX6DZR-16" vertex="1">
          <mxGeometry y="75.10227272727272" width="489.99999999999994" height="255.34772727272727" as="geometry" />
        </mxCell>
        <mxCell id="2sUulGhKF5afohLX6DZR-20" value="Contains" style="endArrow=none;html=1;rounded=0;fontSize=15;endFill=0;startArrow=openThin;startFill=0;" parent="1" source="2sUulGhKF5afohLX6DZR-18" target="KL4kwilNAHB5f6T94Mk6-22" edge="1">
          <mxGeometry width="50" height="50" relative="1" as="geometry">
            <mxPoint x="1960" y="995" as="sourcePoint" />
            <mxPoint x="2110" y="960" as="targetPoint" />
          </mxGeometry>
        </mxCell>
        <mxCell id="2sUulGhKF5afohLX6DZR-22" value="" style="group" parent="1" vertex="1" connectable="0">
          <mxGeometry x="1720" y="2250" width="410" height="220" as="geometry" />
        </mxCell>
        <mxCell id="2sUulGhKF5afohLX6DZR-45" value="" style="group" parent="2sUulGhKF5afohLX6DZR-22" vertex="1" connectable="0">
          <mxGeometry x="-10" width="410" height="220" as="geometry" />
        </mxCell>
        <mxCell id="KL4kwilNAHB5f6T94Mk6-1" value="&lt;font style=&quot;font-size: 17px;&quot;&gt;Resources&lt;/font&gt;" style="rounded=0;whiteSpace=wrap;html=1;" parent="2sUulGhKF5afohLX6DZR-45" vertex="1">
          <mxGeometry width="110" height="50" as="geometry" />
        </mxCell>
        <mxCell id="KL4kwilNAHB5f6T94Mk6-4" value="&lt;ul style=&quot;text-align: left; font-size: 15px;&quot;&gt;&lt;li style=&quot;&quot;&gt;&lt;span style=&quot;color: rgb(51, 51, 51); font-family: -apple-system, &amp;quot;system-ui&amp;quot;, &amp;quot;Segoe UI&amp;quot;, Ubuntu, sans-serif, &amp;quot;Apple Color Emoji&amp;quot;, &amp;quot;Segoe UI Emoji&amp;quot;, &amp;quot;Segoe UI Symbol&amp;quot;, &amp;quot;Noto Color Emoji&amp;quot;; background-color: rgb(255, 255, 255);&quot;&gt;&lt;font style=&quot;font-size: 15px;&quot;&gt;Pointer to a &lt;b&gt;machine/s&lt;/b&gt; that has the CloudBees CD/RO &lt;b&gt;agent installed&lt;/b&gt;&amp;nbsp;--&amp;gt;&amp;nbsp;&lt;/font&gt;&lt;/span&gt;where the steps are run&lt;/li&gt;&lt;li style=&quot;&quot;&gt;&lt;span style=&quot;color: rgb(51, 51, 51); font-family: -apple-system, &amp;quot;system-ui&amp;quot;, &amp;quot;Segoe UI&amp;quot;, Ubuntu, sans-serif, &amp;quot;Apple Color Emoji&amp;quot;, &amp;quot;Segoe UI Emoji&amp;quot;, &amp;quot;Segoe UI Symbol&amp;quot;, &amp;quot;Noto Color Emoji&amp;quot;; background-color: rgb(255, 255, 255);&quot;&gt;Resource could be 1 machine or multiple (Pool)&lt;/span&gt;&lt;/li&gt;&lt;li style=&quot;&quot;&gt;&lt;span style=&quot;color: rgb(51, 51, 51); font-family: -apple-system, &amp;quot;system-ui&amp;quot;, &amp;quot;Segoe UI&amp;quot;, Ubuntu, sans-serif, &amp;quot;Apple Color Emoji&amp;quot;, &amp;quot;Segoe UI Emoji&amp;quot;, &amp;quot;Segoe UI Symbol&amp;quot;, &amp;quot;Noto Color Emoji&amp;quot;; background-color: rgb(255, 255, 255);&quot;&gt;Link between the system/host that CD/RO uses to perform a tasks on and the environments used&lt;/span&gt;&lt;br&gt;&lt;/li&gt;&lt;li style=&quot;&quot;&gt;&lt;span style=&quot;color: rgb(51, 51, 51); font-family: -apple-system, &amp;quot;system-ui&amp;quot;, &amp;quot;Segoe UI&amp;quot;, Ubuntu, sans-serif, &amp;quot;Apple Color Emoji&amp;quot;, &amp;quot;Segoe UI Emoji&amp;quot;, &amp;quot;Segoe UI Symbol&amp;quot;, &amp;quot;Noto Color Emoji&amp;quot;; background-color: rgb(255, 255, 255);&quot;&gt;Access:&amp;nbsp;&lt;/span&gt;&lt;span style=&quot;box-sizing: border-box; color: rgb(51, 51, 51); font-family: -apple-system, &amp;quot;system-ui&amp;quot;, &amp;quot;Segoe UI&amp;quot;, Ubuntu, sans-serif, &amp;quot;Apple Color Emoji&amp;quot;, &amp;quot;Segoe UI Emoji&amp;quot;, &amp;quot;Segoe UI Symbol&amp;quot;, &amp;quot;Noto Color Emoji&amp;quot;; font-size: 16px; background-color: rgb(255, 255, 255);&quot; class=&quot;menu&quot;&gt;DevOps Essentials &amp;gt;&lt;/span&gt;&lt;span style=&quot;color: rgb(51, 51, 51); font-family: -apple-system, &amp;quot;system-ui&amp;quot;, &amp;quot;Segoe UI&amp;quot;, Ubuntu, sans-serif, &amp;quot;Apple Color Emoji&amp;quot;, &amp;quot;Segoe UI Emoji&amp;quot;, &amp;quot;Segoe UI Symbol&amp;quot;, &amp;quot;Noto Color Emoji&amp;quot;; font-size: 16px; background-color: rgb(255, 255, 255);&quot;&gt;&amp;nbsp;&lt;/span&gt;&lt;span style=&quot;box-sizing: border-box; color: rgb(51, 51, 51); font-family: -apple-system, &amp;quot;system-ui&amp;quot;, &amp;quot;Segoe UI&amp;quot;, Ubuntu, sans-serif, &amp;quot;Apple Color Emoji&amp;quot;, &amp;quot;Segoe UI Emoji&amp;quot;, &amp;quot;Segoe UI Symbol&amp;quot;, &amp;quot;Noto Color Emoji&amp;quot;; font-size: 16px; background-color: rgb(255, 255, 255);&quot; class=&quot;menuitem&quot;&gt;Resources&lt;/span&gt;&lt;/li&gt;&lt;/ul&gt;" style="rounded=0;whiteSpace=wrap;html=1;fontSize=14;" parent="2sUulGhKF5afohLX6DZR-45" vertex="1">
          <mxGeometry y="50" width="410" height="170" as="geometry" />
        </mxCell>
        <mxCell id="2sUulGhKF5afohLX6DZR-23" value="" style="endArrow=classic;html=1;rounded=0;fontSize=15;entryX=0;entryY=0.5;entryDx=0;entryDy=0;" parent="1" source="KL4kwilNAHB5f6T94Mk6-6" target="KL4kwilNAHB5f6T94Mk6-4" edge="1">
          <mxGeometry width="50" height="50" relative="1" as="geometry">
            <mxPoint x="2090" y="1170" as="sourcePoint" />
            <mxPoint x="2349.9999999999995" y="1169.7772727272725" as="targetPoint" />
          </mxGeometry>
        </mxCell>
        <mxCell id="2sUulGhKF5afohLX6DZR-24" value="Executed on" style="edgeLabel;html=1;align=center;verticalAlign=middle;resizable=0;points=[];fontSize=15;" parent="2sUulGhKF5afohLX6DZR-23" vertex="1" connectable="0">
          <mxGeometry x="-0.157" y="-4" relative="1" as="geometry">
            <mxPoint as="offset" />
          </mxGeometry>
        </mxCell>
        <mxCell id="2sUulGhKF5afohLX6DZR-27" value="" style="endArrow=classic;html=1;rounded=0;fontSize=15;exitX=0;exitY=0.25;exitDx=0;exitDy=0;entryX=1;entryY=0.5;entryDx=0;entryDy=0;" parent="1" source="KL4kwilNAHB5f6T94Mk6-22" target="KL4kwilNAHB5f6T94Mk6-10" edge="1">
          <mxGeometry width="50" height="50" relative="1" as="geometry">
            <mxPoint x="1650" y="1360" as="sourcePoint" />
            <mxPoint x="2008.3177570093462" y="1715" as="targetPoint" />
          </mxGeometry>
        </mxCell>
        <mxCell id="2sUulGhKF5afohLX6DZR-28" value="RUN" style="edgeLabel;html=1;align=center;verticalAlign=middle;resizable=0;points=[];fontSize=15;" parent="2sUulGhKF5afohLX6DZR-27" vertex="1" connectable="0">
          <mxGeometry x="-0.0236" y="-2" relative="1" as="geometry">
            <mxPoint as="offset" />
          </mxGeometry>
        </mxCell>
        <mxCell id="2sUulGhKF5afohLX6DZR-30" value="" style="group" parent="1" vertex="1" connectable="0">
          <mxGeometry x="470" y="1810" width="510" height="580" as="geometry" />
        </mxCell>
        <mxCell id="2sUulGhKF5afohLX6DZR-31" value="&lt;font style=&quot;font-size: 17px;&quot;&gt;Properties&lt;br&gt;&lt;/font&gt;" style="rounded=0;whiteSpace=wrap;html=1;" parent="2sUulGhKF5afohLX6DZR-30" vertex="1">
          <mxGeometry y="25.77777777777777" width="116.87113636363637" height="44.956444444444436" as="geometry" />
        </mxCell>
        <mxCell id="2sUulGhKF5afohLX6DZR-32" value="&lt;ul style=&quot;&quot;&gt;&lt;li style=&quot;&quot;&gt;It stores information that can be attached to any object ( Releases and Pipelines, servers, projects, procedures, steps, resources, jobs, and users.)&lt;/li&gt;&lt;li style=&quot;&quot;&gt;Use case&lt;/li&gt;&lt;ul&gt;&lt;li style=&quot;&quot;&gt;Control del workflow (e.g ifProduction), Selecting Resources, Controlling command steps&lt;/li&gt;&lt;/ul&gt;&lt;li style=&quot;&quot;&gt;Storage: name/value pairs&lt;/li&gt;&lt;ul&gt;&lt;li style=&quot;&quot;&gt;Both ASCII and Binary values are supported&lt;/li&gt;&lt;li style=&quot;&quot;&gt;Value size is not limited&lt;/li&gt;&lt;/ul&gt;&lt;li&gt;&lt;span style=&quot;background-color: initial;&quot;&gt;Types&lt;/span&gt;&lt;br&gt;&lt;/li&gt;&lt;ul&gt;&lt;li style=&quot;box-sizing: border-box; margin-bottom: 12px;&quot;&gt;&lt;p style=&quot;box-sizing: border-box; margin: 0px;&quot;&gt;Built-in (intrinsic) properties store information on processes within the intrinsic properties in CloudBees CD/RO, such as start times, elapsed times, and names of approvers.&lt;/p&gt;&lt;/li&gt;&lt;li&gt;&lt;span style=&quot;background-color: rgb(255, 255, 255); color: rgb(51, 51, 51);&quot;&gt;User-created properties can be used for:&lt;/span&gt;&lt;br&gt;&lt;/li&gt;&lt;ul&gt;&lt;li&gt;&lt;span style=&quot;background-color: rgb(255, 255, 255); color: rgb(51, 51, 51);&quot;&gt;Configuration data (e.g. resource step limits)&lt;/span&gt;&lt;/li&gt;&lt;li&gt;&lt;span style=&quot;background-color: rgb(255, 255, 255); color: rgb(51, 51, 51);&quot;&gt;Scripting variables&lt;/span&gt;&lt;/li&gt;&lt;li&gt;&lt;span style=&quot;background-color: rgb(255, 255, 255); color: rgb(51, 51, 51);&quot;&gt;Storing results (e.g. error, warning and compile counters)&lt;/span&gt;&lt;/li&gt;&lt;li&gt;&lt;span style=&quot;background-color: rgb(255, 255, 255); color: rgb(51, 51, 51);&quot;&gt;Communication (e.g. passing data between job steps)&lt;/span&gt;&lt;/li&gt;&lt;/ul&gt;&lt;/ul&gt;&lt;li&gt;&lt;font color=&quot;#333333&quot;&gt;Syntax --&amp;nbsp;&lt;/font&gt;&lt;code style=&quot;box-sizing: border-box; font-family: SFMono-Regular, Menlo, Monaco, Consolas, &amp;quot;Liberation Mono&amp;quot;, &amp;quot;Courier New&amp;quot;, monospace; overflow-wrap: break-word; color: rgb(199, 46, 191); word-break: break-word; background-color: rgb(242, 242, 242); padding: 0.075rem 0.25rem 0.125rem; border-radius: 0.2rem;&quot;&gt;$[propertyPath]&lt;/code&gt;&lt;span style=&quot;background-color: initial;&quot;&gt;&amp;nbsp;&lt;/span&gt;&lt;span style=&quot;background-color: initial;&quot;&gt;– this can be absolute or relative property path. Property paths reflect the object they are attached to:&lt;/span&gt;&lt;/li&gt;&lt;ul&gt;&lt;li&gt;&lt;code style=&quot;box-sizing: border-box; font-family: SFMono-Regular, Menlo, Monaco, Consolas, &amp;quot;Liberation Mono&amp;quot;, &amp;quot;Courier New&amp;quot;, monospace; overflow-wrap: break-word; color: rgb(199, 46, 191); word-break: break-word; background-color: rgb(242, 242, 242); padding: 0.075rem 0.25rem 0.125rem; border-radius: 0.2rem;&quot;&gt;/users/admin/fullUserName&lt;/code&gt;&lt;span style=&quot;background-color: initial;&quot;&gt;&amp;nbsp;--- built-in (intrinsic) property&lt;/span&gt;&lt;/li&gt;&lt;li&gt;&lt;code style=&quot;box-sizing: border-box; font-family: SFMono-Regular, Menlo, Monaco, Consolas, &amp;quot;Liberation Mono&amp;quot;, &amp;quot;Courier New&amp;quot;, monospace; overflow-wrap: break-word; color: rgb(199, 46, 191); word-break: break-word; background-color: rgb(242, 242, 242); padding: 0.075rem 0.25rem 0.125rem; border-radius: 0.2rem;&quot;&gt;/users/admin/myLastJob&lt;/code&gt;&lt;span style=&quot;background-color: initial;&quot;&gt;&amp;nbsp;--- user-created property&lt;/span&gt;&lt;/li&gt;&lt;/ul&gt;&lt;li&gt;&lt;span style=&quot;color: rgb(51, 51, 51); background-color: initial;&quot;&gt;&amp;nbsp;Access&lt;/span&gt;&lt;br&gt;&lt;/li&gt;&lt;ul&gt;&lt;li&gt;&lt;span style=&quot;background-color: initial;&quot;&gt;Browser – by inspection of various objects within the UI&lt;/span&gt;&lt;/li&gt;&lt;li&gt;&lt;span style=&quot;background-color: initial;&quot;&gt;Substitution in step commands - $[jobId]&lt;/span&gt;&lt;/li&gt;&lt;li&gt;&lt;span style=&quot;background-color: initial;&quot;&gt;ectool –&lt;/span&gt;&lt;span style=&quot;background-color: initial;&quot;&gt;&amp;nbsp;&lt;/span&gt;&lt;code style=&quot;box-sizing: border-box; font-family: SFMono-Regular, Menlo, Monaco, Consolas, &amp;quot;Liberation Mono&amp;quot;, &amp;quot;Courier New&amp;quot;, monospace; overflow-wrap: break-word; color: rgb(199, 46, 191); word-break: break-word; background-color: rgb(242, 242, 242); padding: 0.075rem 0.25rem 0.125rem; border-radius: 0.2rem;&quot;&gt;ectool getProperty /myJob/jobName&lt;/code&gt;&lt;/li&gt;&lt;li&gt;&lt;span style=&quot;background-color: initial;&quot;&gt;Perl API –&lt;/span&gt;&lt;span style=&quot;background-color: initial;&quot;&gt;&amp;nbsp;&lt;/span&gt;&lt;code style=&quot;box-sizing: border-box; font-family: SFMono-Regular, Menlo, Monaco, Consolas, &amp;quot;Liberation Mono&amp;quot;, &amp;quot;Courier New&amp;quot;, monospace; overflow-wrap: break-word; color: rgb(199, 46, 191); word-break: break-word; background-color: rgb(242, 242, 242); padding: 0.075rem 0.25rem 0.125rem; border-radius: 0.2rem;&quot;&gt;my $xPath = $ec→getProperty(&quot;/myJob/jobName&quot;)&lt;/code&gt;&lt;span style=&quot;background-color: initial;&quot;&gt;;&lt;/span&gt;&lt;/li&gt;&lt;li&gt;&lt;span style=&quot;background-color: initial;&quot;&gt;DSL - property &quot;prop&quot;, value: &quot;project-level value&quot;&lt;/span&gt;&lt;/li&gt;&lt;/ul&gt;&lt;/ul&gt;" style="rounded=0;whiteSpace=wrap;html=1;fontSize=14;align=left;" parent="2sUulGhKF5afohLX6DZR-30" vertex="1">
          <mxGeometry y="70.73170731707316" width="510.00000000000006" height="509.2682926829268" as="geometry" />
        </mxCell>
        <mxCell id="2sUulGhKF5afohLX6DZR-34" value="" style="endArrow=classic;html=1;rounded=0;fontSize=15;exitX=1;exitY=0.5;exitDx=0;exitDy=0;" parent="1" source="KL4kwilNAHB5f6T94Mk6-6" target="KL4kwilNAHB5f6T94Mk6-22" edge="1">
          <mxGeometry width="50" height="50" relative="1" as="geometry">
            <mxPoint x="1120" y="1240" as="sourcePoint" />
            <mxPoint x="1670" y="1584.6202531645567" as="targetPoint" />
          </mxGeometry>
        </mxCell>
        <mxCell id="2sUulGhKF5afohLX6DZR-35" value="It can call a ..&lt;br&gt;" style="edgeLabel;html=1;align=center;verticalAlign=middle;resizable=0;points=[];fontSize=15;" parent="2sUulGhKF5afohLX6DZR-34" vertex="1" connectable="0">
          <mxGeometry x="-0.0236" y="-2" relative="1" as="geometry">
            <mxPoint as="offset" />
          </mxGeometry>
        </mxCell>
        <mxCell id="2sUulGhKF5afohLX6DZR-36" value="" style="group" parent="1" vertex="1" connectable="0">
          <mxGeometry x="470" y="2810" width="510" height="340" as="geometry" />
        </mxCell>
        <mxCell id="2sUulGhKF5afohLX6DZR-37" value="&lt;font style=&quot;font-size: 17px;&quot;&gt;Parameters&lt;br&gt;&lt;/font&gt;" style="rounded=0;whiteSpace=wrap;html=1;" parent="2sUulGhKF5afohLX6DZR-36" vertex="1">
          <mxGeometry y="15.111111111111107" width="116.87113636363637" height="26.353777777777772" as="geometry" />
        </mxCell>
        <mxCell id="2sUulGhKF5afohLX6DZR-38" value="&lt;ul style=&quot;&quot;&gt;&lt;li style=&quot;&quot;&gt;&lt;span style=&quot;color: rgb(51, 51, 51); font-family: -apple-system, &amp;quot;system-ui&amp;quot;, &amp;quot;Segoe UI&amp;quot;, Ubuntu, sans-serif, &amp;quot;Apple Color Emoji&amp;quot;, &amp;quot;Segoe UI Emoji&amp;quot;, &amp;quot;Segoe UI Symbol&amp;quot;, &amp;quot;Noto Color Emoji&amp;quot;; font-size: 16px; background-color: rgb(255, 255, 255);&quot;&gt;Parameters are a special type of property, and a mechanism for a user to provide &lt;b&gt;input&lt;/b&gt;. Parameters are &lt;b&gt;arguments to a procedure&lt;/b&gt;. Parameters are &lt;b&gt;entered at runtime, and can then be used throughout the given process&lt;/b&gt;&lt;/span&gt;&lt;/li&gt;&lt;li style=&quot;&quot;&gt;Types:&lt;/li&gt;&lt;ul&gt;&lt;li&gt;&lt;span style=&quot;background-color: rgb(255, 255, 255); color: rgb(51, 51, 51); font-family: -apple-system, &amp;quot;system-ui&amp;quot;, &amp;quot;Segoe UI&amp;quot;, Ubuntu, sans-serif, &amp;quot;Apple Color Emoji&amp;quot;, &amp;quot;Segoe UI Emoji&amp;quot;, &amp;quot;Segoe UI Symbol&amp;quot;, &amp;quot;Noto Color Emoji&amp;quot;; font-size: 16px;&quot;&gt;Text&lt;/span&gt;&lt;/li&gt;&lt;li&gt;&lt;span style=&quot;background-color: rgb(255, 255, 255); color: rgb(51, 51, 51); font-family: -apple-system, &amp;quot;system-ui&amp;quot;, &amp;quot;Segoe UI&amp;quot;, Ubuntu, sans-serif, &amp;quot;Apple Color Emoji&amp;quot;, &amp;quot;Segoe UI Emoji&amp;quot;, &amp;quot;Segoe UI Symbol&amp;quot;, &amp;quot;Noto Color Emoji&amp;quot;; font-size: 16px;&quot;&gt;Checkbox&lt;/span&gt;&lt;/li&gt;&lt;li&gt;&lt;span style=&quot;background-color: rgb(255, 255, 255); color: rgb(51, 51, 51); font-family: -apple-system, &amp;quot;system-ui&amp;quot;, &amp;quot;Segoe UI&amp;quot;, Ubuntu, sans-serif, &amp;quot;Apple Color Emoji&amp;quot;, &amp;quot;Segoe UI Emoji&amp;quot;, &amp;quot;Segoe UI Symbol&amp;quot;, &amp;quot;Noto Color Emoji&amp;quot;; font-size: 16px;&quot;&gt;Dropdown List&lt;/span&gt;&lt;/li&gt;&lt;li&gt;&lt;span style=&quot;background-color: rgb(255, 255, 255); color: rgb(51, 51, 51); font-family: -apple-system, &amp;quot;system-ui&amp;quot;, &amp;quot;Segoe UI&amp;quot;, Ubuntu, sans-serif, &amp;quot;Apple Color Emoji&amp;quot;, &amp;quot;Segoe UI Emoji&amp;quot;, &amp;quot;Segoe UI Symbol&amp;quot;, &amp;quot;Noto Color Emoji&amp;quot;; font-size: 16px;&quot;&gt;Radio Selector&lt;/span&gt;&lt;/li&gt;&lt;/ul&gt;&lt;li&gt;&lt;font face=&quot;-apple-system, system-ui, Segoe UI, Ubuntu, sans-serif, Apple Color Emoji, Segoe UI Emoji, Segoe UI Symbol, Noto Color Emoji&quot; color=&quot;#333333&quot;&gt;&lt;span style=&quot;font-size: 16px;&quot;&gt;Access - Within a step -&amp;nbsp;&lt;/span&gt;&lt;/font&gt;$[compName]&lt;/li&gt;&lt;li&gt;It accept default values&lt;/li&gt;&lt;/ul&gt;&lt;ul style=&quot;&quot;&gt;&lt;/ul&gt;&lt;ul style=&quot;&quot;&gt;&lt;/ul&gt;&lt;ul style=&quot;&quot;&gt;&lt;/ul&gt;" style="rounded=0;whiteSpace=wrap;html=1;fontSize=14;align=left;" parent="2sUulGhKF5afohLX6DZR-36" vertex="1">
          <mxGeometry y="41.46341463414634" width="510.00000000000006" height="298.5365853658537" as="geometry" />
        </mxCell>
        <mxCell id="2sUulGhKF5afohLX6DZR-39" value="" style="endArrow=classic;html=1;rounded=0;fontSize=15;" parent="1" source="2sUulGhKF5afohLX6DZR-38" target="2sUulGhKF5afohLX6DZR-32" edge="1">
          <mxGeometry width="50" height="50" relative="1" as="geometry">
            <mxPoint x="693.5699999999999" y="2360.73" as="sourcePoint" />
            <mxPoint x="694" y="2130" as="targetPoint" />
          </mxGeometry>
        </mxCell>
        <mxCell id="2sUulGhKF5afohLX6DZR-40" value="Type of..." style="edgeLabel;html=1;align=center;verticalAlign=middle;resizable=0;points=[];fontSize=15;" parent="2sUulGhKF5afohLX6DZR-39" vertex="1" connectable="0">
          <mxGeometry x="-0.157" y="-4" relative="1" as="geometry">
            <mxPoint as="offset" />
          </mxGeometry>
        </mxCell>
        <mxCell id="2sUulGhKF5afohLX6DZR-41" value="" style="endArrow=classic;html=1;rounded=0;fontSize=15;" parent="1" source="2sUulGhKF5afohLX6DZR-32" target="KL4kwilNAHB5f6T94Mk6-22" edge="1">
          <mxGeometry width="50" height="50" relative="1" as="geometry">
            <mxPoint x="1000" y="1570" as="sourcePoint" />
            <mxPoint x="1000" y="1329.2682926829266" as="targetPoint" />
          </mxGeometry>
        </mxCell>
        <mxCell id="2sUulGhKF5afohLX6DZR-42" value="Modify Behavior" style="edgeLabel;html=1;align=center;verticalAlign=middle;resizable=0;points=[];fontSize=15;" parent="2sUulGhKF5afohLX6DZR-41" vertex="1" connectable="0">
          <mxGeometry x="-0.157" y="-4" relative="1" as="geometry">
            <mxPoint as="offset" />
          </mxGeometry>
        </mxCell>
        <mxCell id="2sUulGhKF5afohLX6DZR-46" value="" style="endArrow=classic;html=1;rounded=0;fontSize=15;exitX=0.5;exitY=1;exitDx=0;exitDy=0;" parent="1" source="2sUulGhKF5afohLX6DZR-18" target="KL4kwilNAHB5f6T94Mk6-4" edge="1">
          <mxGeometry width="50" height="50" relative="1" as="geometry">
            <mxPoint x="1800" y="1750" as="sourcePoint" />
            <mxPoint x="3260.000000000001" y="2220.005039370079" as="targetPoint" />
          </mxGeometry>
        </mxCell>
        <mxCell id="2sUulGhKF5afohLX6DZR-47" value="Executed on" style="edgeLabel;html=1;align=center;verticalAlign=middle;resizable=0;points=[];fontSize=15;" parent="2sUulGhKF5afohLX6DZR-46" vertex="1" connectable="0">
          <mxGeometry x="-0.157" y="-4" relative="1" as="geometry">
            <mxPoint as="offset" />
          </mxGeometry>
        </mxCell>
        <mxCell id="KL4kwilNAHB5f6T94Mk6-7" value="&lt;font style=&quot;font-size: 17px;&quot;&gt;Service Catalog&lt;br&gt;&lt;/font&gt;" style="rounded=0;whiteSpace=wrap;html=1;" parent="1" vertex="1">
          <mxGeometry x="2330" y="3760" width="150" height="50" as="geometry" />
        </mxCell>
        <mxCell id="KL4kwilNAHB5f6T94Mk6-8" value="&lt;ul style=&quot;&quot;&gt;&lt;li style=&quot;text-align: left;&quot;&gt;&lt;span style=&quot;background-color: rgb(255, 255, 255);&quot;&gt;&lt;font face=&quot;-apple-system, system-ui, Segoe UI, Ubuntu, sans-serif, Apple Color Emoji, Segoe UI Emoji, Segoe UI Symbol, Noto Color Emoji&quot; color=&quot;#333333&quot;&gt;Quick-start &lt;/font&gt;&lt;b style=&quot;color: rgb(51, 51, 51); font-family: -apple-system, &amp;quot;system-ui&amp;quot;, &amp;quot;Segoe UI&amp;quot;, Ubuntu, sans-serif, &amp;quot;Apple Color Emoji&amp;quot;, &amp;quot;Segoe UI Emoji&amp;quot;, &amp;quot;Segoe UI Symbol&amp;quot;, &amp;quot;Noto Color Emoji&amp;quot;; font-size: 15px;&quot;&gt;Templates&lt;/b&gt;&lt;font face=&quot;-apple-system, system-ui, Segoe UI, Ubuntu, sans-serif, Apple Color Emoji, Segoe UI Emoji, Segoe UI Symbol, Noto Color Emoji&quot; color=&quot;#333333&quot;&gt; for creating objects in CB-CD (application models, deployment processes, pipelines, releases, dashboards, reports)&lt;/font&gt;&lt;/span&gt;&lt;br style=&quot;font-size: 15px;&quot;&gt;&lt;/li&gt;&lt;li style=&quot;font-size: 15px; text-align: left;&quot;&gt;&lt;span style=&quot;color: rgb(51, 51, 51); font-family: -apple-system, &amp;quot;system-ui&amp;quot;, &amp;quot;Segoe UI&amp;quot;, Ubuntu, sans-serif, &amp;quot;Apple Color Emoji&amp;quot;, &amp;quot;Segoe UI Emoji&amp;quot;, &amp;quot;Segoe UI Symbol&amp;quot;, &amp;quot;Noto Color Emoji&amp;quot;; font-size: 15px; background-color: rgb(255, 255, 255);&quot;&gt;It can be customizable according to the Organization needs and controlled by ACL&lt;/span&gt;&lt;/li&gt;&lt;li style=&quot;font-size: 15px; text-align: left;&quot;&gt;&lt;span style=&quot;color: rgb(51, 51, 51); font-family: -apple-system, &amp;quot;system-ui&amp;quot;, &amp;quot;Segoe UI&amp;quot;, Ubuntu, sans-serif, &amp;quot;Apple Color Emoji&amp;quot;, &amp;quot;Segoe UI Emoji&amp;quot;, &amp;quot;Segoe UI Symbol&amp;quot;, &amp;quot;Noto Color Emoji&amp;quot;; font-size: 15px; background-color: rgb(255, 255, 255);&quot;&gt;Benefit:&amp;nbsp;&lt;/span&gt;&lt;/li&gt;&lt;ul style=&quot;font-size: 15px;&quot;&gt;&lt;li style=&quot;text-align: left; font-size: 15px;&quot;&gt;&lt;span style=&quot;color: rgb(51, 51, 51); font-family: -apple-system, &amp;quot;system-ui&amp;quot;, &amp;quot;Segoe UI&amp;quot;, Ubuntu, sans-serif, &amp;quot;Apple Color Emoji&amp;quot;, &amp;quot;Segoe UI Emoji&amp;quot;, &amp;quot;Segoe UI Symbol&amp;quot;, &amp;quot;Noto Color Emoji&amp;quot;; font-size: 15px; background-color: rgb(255, 255, 255);&quot;&gt;“head-start” : Increase Onboarding and Adoption&lt;/span&gt;&lt;/li&gt;&lt;li style=&quot;text-align: left; font-size: 15px;&quot;&gt;&lt;span style=&quot;color: rgb(51, 51, 51); font-family: -apple-system, &amp;quot;system-ui&amp;quot;, &amp;quot;Segoe UI&amp;quot;, Ubuntu, sans-serif, &amp;quot;Apple Color Emoji&amp;quot;, &amp;quot;Segoe UI Emoji&amp;quot;, &amp;quot;Segoe UI Symbol&amp;quot;, &amp;quot;Noto Color Emoji&amp;quot;; font-size: 15px; background-color: rgb(255, 255, 255);&quot;&gt;Implementation of Best Practices&lt;/span&gt;&lt;/li&gt;&lt;/ul&gt;&lt;li style=&quot;text-align: left;&quot;&gt;&lt;font face=&quot;-apple-system, system-ui, Segoe UI, Ubuntu, sans-serif, Apple Color Emoji, Segoe UI Emoji, Segoe UI Symbol, Noto Color Emoji&quot; color=&quot;#333333&quot;&gt;Definition: DSL, Add-on (Plugin) or via Procedure. Also it can be included via Deployment Package Manager.&lt;/font&gt;&lt;/li&gt;&lt;/ul&gt;&lt;ul style=&quot;&quot;&gt;&lt;li style=&quot;text-align: left;&quot;&gt;Currently, the following catalogs are available out of the box.&lt;/li&gt;&lt;ul&gt;&lt;li style=&quot;text-align: left;&quot;&gt;&lt;span style=&quot;background-color: rgb(255, 255, 255); font-family: -apple-system, &amp;quot;system-ui&amp;quot;, &amp;quot;Segoe UI&amp;quot;, Ubuntu, sans-serif, &amp;quot;Apple Color Emoji&amp;quot;, &amp;quot;Segoe UI Emoji&amp;quot;, &amp;quot;Segoe UI Symbol&amp;quot;, &amp;quot;Noto Color Emoji&amp;quot;; font-size: 16px; color: rgb(51, 51, 51);&quot;&gt;Applications – WebLogic, WebSphere, JBoss, etc.&lt;/span&gt;&lt;/li&gt;&lt;li style=&quot;text-align: left;&quot;&gt;&lt;span style=&quot;background-color: rgb(255, 255, 255); font-family: -apple-system, &amp;quot;system-ui&amp;quot;, &amp;quot;Segoe UI&amp;quot;, Ubuntu, sans-serif, &amp;quot;Apple Color Emoji&amp;quot;, &amp;quot;Segoe UI Emoji&amp;quot;, &amp;quot;Segoe UI Symbol&amp;quot;, &amp;quot;Noto Color Emoji&amp;quot;; font-size: 16px; color: rgb(51, 51, 51);&quot;&gt;Cloud Provisioning – AWS, Azure&lt;/span&gt;&lt;/li&gt;&lt;li style=&quot;text-align: left;&quot;&gt;&lt;span style=&quot;background-color: rgb(255, 255, 255); font-family: -apple-system, &amp;quot;system-ui&amp;quot;, &amp;quot;Segoe UI&amp;quot;, Ubuntu, sans-serif, &amp;quot;Apple Color Emoji&amp;quot;, &amp;quot;Segoe UI Emoji&amp;quot;, &amp;quot;Segoe UI Symbol&amp;quot;, &amp;quot;Noto Color Emoji&amp;quot;; font-size: 16px; color: rgb(51, 51, 51);&quot;&gt;Containers – Kubernetes, Docker, ECS, etc.&lt;/span&gt;&lt;/li&gt;&lt;li style=&quot;text-align: left;&quot;&gt;&lt;span style=&quot;background-color: rgb(255, 255, 255); font-family: -apple-system, &amp;quot;system-ui&amp;quot;, &amp;quot;Segoe UI&amp;quot;, Ubuntu, sans-serif, &amp;quot;Apple Color Emoji&amp;quot;, &amp;quot;Segoe UI Emoji&amp;quot;, &amp;quot;Segoe UI Symbol&amp;quot;, &amp;quot;Noto Color Emoji&amp;quot;; font-size: 16px; color: rgb(51, 51, 51);&quot;&gt;DSL - Domain specific languages for automation as code.&lt;/span&gt;&lt;/li&gt;&lt;li style=&quot;text-align: left;&quot;&gt;&lt;span style=&quot;background-color: rgb(255, 255, 255); font-family: -apple-system, &amp;quot;system-ui&amp;quot;, &amp;quot;Segoe UI&amp;quot;, Ubuntu, sans-serif, &amp;quot;Apple Color Emoji&amp;quot;, &amp;quot;Segoe UI Emoji&amp;quot;, &amp;quot;Segoe UI Symbol&amp;quot;, &amp;quot;Noto Color Emoji&amp;quot;; font-size: 16px; color: rgb(51, 51, 51);&quot;&gt;Pipeline – CloudBees CD/RO pipelines&lt;/span&gt;&lt;/li&gt;&lt;li style=&quot;text-align: left;&quot;&gt;&lt;span style=&quot;background-color: rgb(255, 255, 255); font-family: -apple-system, &amp;quot;system-ui&amp;quot;, &amp;quot;Segoe UI&amp;quot;, Ubuntu, sans-serif, &amp;quot;Apple Color Emoji&amp;quot;, &amp;quot;Segoe UI Emoji&amp;quot;, &amp;quot;Segoe UI Symbol&amp;quot;, &amp;quot;Noto Color Emoji&amp;quot;; font-size: 16px; color: rgb(51, 51, 51);&quot;&gt;Utility – Artifact usage, Log collection&lt;/span&gt;&lt;/li&gt;&lt;li style=&quot;text-align: left;&quot;&gt;&lt;span style=&quot;background-color: rgb(255, 255, 255); font-family: -apple-system, &amp;quot;system-ui&amp;quot;, &amp;quot;Segoe UI&amp;quot;, Ubuntu, sans-serif, &amp;quot;Apple Color Emoji&amp;quot;, &amp;quot;Segoe UI Emoji&amp;quot;, &amp;quot;Segoe UI Symbol&amp;quot;, &amp;quot;Noto Color Emoji&amp;quot;; font-size: 16px; color: rgb(51, 51, 51);&quot;&gt;Training - Samples and tutorials for learning&lt;/span&gt;&lt;/li&gt;&lt;li style=&quot;text-align: left;&quot;&gt;&lt;span style=&quot;background-color: rgb(255, 255, 255); font-family: -apple-system, &amp;quot;system-ui&amp;quot;, &amp;quot;Segoe UI&amp;quot;, Ubuntu, sans-serif, &amp;quot;Apple Color Emoji&amp;quot;, &amp;quot;Segoe UI Emoji&amp;quot;, &amp;quot;Segoe UI Symbol&amp;quot;, &amp;quot;Noto Color Emoji&amp;quot;; font-size: 16px; color: rgb(51, 51, 51);&quot;&gt;You can also create your own catalogs&lt;/span&gt;&lt;/li&gt;&lt;/ul&gt;&lt;/ul&gt;&lt;ul style=&quot;&quot;&gt;&lt;/ul&gt;&lt;ul style=&quot;&quot;&gt;&lt;/ul&gt;&lt;ul style=&quot;&quot;&gt;&lt;/ul&gt;&lt;ul style=&quot;&quot;&gt;&lt;/ul&gt;&lt;ul style=&quot;&quot;&gt;&lt;/ul&gt;&lt;ul style=&quot;&quot;&gt;&lt;/ul&gt;&lt;ul style=&quot;&quot;&gt;&lt;/ul&gt;&lt;ul style=&quot;&quot;&gt;&lt;li style=&quot;text-align: left;&quot;&gt;&lt;font face=&quot;-apple-system, system-ui, Segoe UI, Ubuntu, sans-serif, Apple Color Emoji, Segoe UI Emoji, Segoe UI Symbol, Noto Color Emoji&quot; color=&quot;#333333&quot;&gt;&lt;div style=&quot;box-sizing: border-box; margin: 14px 0px 0px; font-family: -apple-system, &amp;quot;system-ui&amp;quot;, &amp;quot;Segoe UI&amp;quot;, Ubuntu, sans-serif, &amp;quot;Apple Color Emoji&amp;quot;, &amp;quot;Segoe UI Emoji&amp;quot;, &amp;quot;Segoe UI Symbol&amp;quot;, &amp;quot;Noto Color Emoji&amp;quot;; font-size: 16px; background-color: rgb(255, 255, 255);&quot; class=&quot;paragraph&quot;&gt;&lt;/div&gt;&lt;/font&gt;&lt;/li&gt;&lt;/ul&gt;" style="rounded=0;whiteSpace=wrap;html=1;fontSize=15;" parent="1" vertex="1">
          <mxGeometry x="2330" y="3810" width="520" height="470" as="geometry" />
        </mxCell>
        <mxCell id="0XYyC6NXQzkNfJko-G7M-9" value="" style="group" vertex="1" connectable="0" parent="1">
          <mxGeometry x="3560" y="1870" width="740" height="460" as="geometry" />
        </mxCell>
        <mxCell id="0XYyC6NXQzkNfJko-G7M-10" value="&lt;div style=&quot;text-align: left;&quot;&gt;&lt;ul&gt;&lt;li&gt;&lt;font face=&quot;-apple-system, system-ui, Segoe UI, Ubuntu, sans-serif, Apple Color Emoji, Segoe UI Emoji, Segoe UI Symbol, Noto Color Emoji&quot; color=&quot;#333333&quot;&gt;&lt;span style=&quot;font-size: 16px; background-color: rgb(255, 255, 255);&quot;&gt;Types:&lt;/span&gt;&lt;/font&gt;&lt;/li&gt;&lt;ul&gt;&lt;li&gt;&lt;span style=&quot;background-color: rgb(255, 255, 255); color: rgb(51, 51, 51); font-family: -apple-system, &amp;quot;system-ui&amp;quot;, &amp;quot;Segoe UI&amp;quot;, Ubuntu, sans-serif, &amp;quot;Apple Color Emoji&amp;quot;, &amp;quot;Segoe UI Emoji&amp;quot;, &amp;quot;Segoe UI Symbol&amp;quot;, &amp;quot;Noto Color Emoji&amp;quot;; font-size: 16px;&quot;&gt;Read:&amp;nbsp;&lt;/span&gt;&lt;span style=&quot;background-color: rgb(255, 255, 255); color: rgb(51, 51, 51); font-family: -apple-system, &amp;quot;system-ui&amp;quot;, &amp;quot;Segoe UI&amp;quot;, Ubuntu, sans-serif, &amp;quot;Apple Color Emoji&amp;quot;, &amp;quot;Segoe UI Emoji&amp;quot;, &amp;quot;Segoe UI Symbol&amp;quot;, &amp;quot;Noto Color Emoji&amp;quot;; font-size: 16px;&quot;&gt;Allows viewing,&amp;nbsp;&lt;/span&gt;&lt;span style=&quot;background-color: rgb(255, 255, 255); color: rgb(51, 51, 51); font-family: -apple-system, &amp;quot;system-ui&amp;quot;, &amp;quot;Segoe UI&amp;quot;, Ubuntu, sans-serif, &amp;quot;Apple Color Emoji&amp;quot;, &amp;quot;Segoe UI Emoji&amp;quot;, &amp;quot;Segoe UI Symbol&amp;quot;, &amp;quot;Noto Color Emoji&amp;quot;; font-size: 16px;&quot;&gt;Determines inclusion in the result set of a search&lt;/span&gt;&lt;/li&gt;&lt;li&gt;&lt;span style=&quot;background-color: rgb(255, 255, 255); color: rgb(51, 51, 51); font-family: -apple-system, &amp;quot;system-ui&amp;quot;, &amp;quot;Segoe UI&amp;quot;, Ubuntu, sans-serif, &amp;quot;Apple Color Emoji&amp;quot;, &amp;quot;Segoe UI Emoji&amp;quot;, &amp;quot;Segoe UI Symbol&amp;quot;, &amp;quot;Noto Color Emoji&amp;quot;; font-size: 16px;&quot;&gt;Modify:&amp;nbsp;&lt;/span&gt;&lt;span style=&quot;background-color: rgb(255, 255, 255); color: rgb(51, 51, 51); font-family: -apple-system, &amp;quot;system-ui&amp;quot;, &amp;quot;Segoe UI&amp;quot;, Ubuntu, sans-serif, &amp;quot;Apple Color Emoji&amp;quot;, &amp;quot;Segoe UI Emoji&amp;quot;, &amp;quot;Segoe UI Symbol&amp;quot;, &amp;quot;Noto Color Emoji&amp;quot;; font-size: 16px;&quot;&gt;Allows creating, editing, and deleting&lt;/span&gt;&lt;/li&gt;&lt;li&gt;&lt;span style=&quot;background-color: rgb(255, 255, 255); color: rgb(51, 51, 51); font-family: -apple-system, &amp;quot;system-ui&amp;quot;, &amp;quot;Segoe UI&amp;quot;, Ubuntu, sans-serif, &amp;quot;Apple Color Emoji&amp;quot;, &amp;quot;Segoe UI Emoji&amp;quot;, &amp;quot;Segoe UI Symbol&amp;quot;, &amp;quot;Noto Color Emoji&amp;quot;; font-size: 16px;&quot;&gt;Execute:&amp;nbsp;&lt;/span&gt;&lt;span style=&quot;background-color: rgb(255, 255, 255); color: rgb(51, 51, 51); font-family: -apple-system, &amp;quot;system-ui&amp;quot;, &amp;quot;Segoe UI&amp;quot;, Ubuntu, sans-serif, &amp;quot;Apple Color Emoji&amp;quot;, &amp;quot;Segoe UI Emoji&amp;quot;, &amp;quot;Segoe UI Symbol&amp;quot;, &amp;quot;Noto Color Emoji&amp;quot;; font-size: 16px;&quot;&gt;Allows the execution of a procedure,&amp;nbsp;&lt;/span&gt;&lt;span style=&quot;background-color: rgb(255, 255, 255); color: rgb(51, 51, 51); font-family: -apple-system, &amp;quot;system-ui&amp;quot;, &amp;quot;Segoe UI&amp;quot;, Ubuntu, sans-serif, &amp;quot;Apple Color Emoji&amp;quot;, &amp;quot;Segoe UI Emoji&amp;quot;, &amp;quot;Segoe UI Symbol&amp;quot;, &amp;quot;Noto Color Emoji&amp;quot;; font-size: 16px;&quot;&gt;Allows running a step on a&amp;nbsp; resource, etc.&lt;/span&gt;&lt;/li&gt;&lt;li&gt;&lt;span style=&quot;background-color: rgb(255, 255, 255); color: rgb(51, 51, 51); font-family: -apple-system, &amp;quot;system-ui&amp;quot;, &amp;quot;Segoe UI&amp;quot;, Ubuntu, sans-serif, &amp;quot;Apple Color Emoji&amp;quot;, &amp;quot;Segoe UI Emoji&amp;quot;, &amp;quot;Segoe UI Symbol&amp;quot;, &amp;quot;Noto Color Emoji&amp;quot;; font-size: 16px;&quot;&gt;Change Permissions:&amp;nbsp;&lt;/span&gt;&lt;span style=&quot;background-color: rgb(255, 255, 255); color: rgb(51, 51, 51); font-family: -apple-system, &amp;quot;system-ui&amp;quot;, &amp;quot;Segoe UI&amp;quot;, Ubuntu, sans-serif, &amp;quot;Apple Color Emoji&amp;quot;, &amp;quot;Segoe UI Emoji&amp;quot;, &amp;quot;Segoe UI Symbol&amp;quot;, &amp;quot;Noto Color Emoji&amp;quot;; font-size: 16px;&quot;&gt;Allows modifying privileges&lt;/span&gt;&lt;/li&gt;&lt;/ul&gt;&lt;/ul&gt;&lt;/div&gt;&lt;div style=&quot;text-align: left;&quot;&gt;&lt;font face=&quot;-apple-system, system-ui, Segoe UI, Ubuntu, sans-serif, Apple Color Emoji, Segoe UI Emoji, Segoe UI Symbol, Noto Color Emoji&quot; color=&quot;#333333&quot;&gt;&lt;span style=&quot;font-size: 16px; background-color: rgb(255, 255, 255);&quot;&gt;&lt;br&gt;&lt;/span&gt;&lt;/font&gt;&lt;/div&gt;&lt;div style=&quot;text-align: left;&quot;&gt;&lt;ul&gt;&lt;li&gt;&lt;span style=&quot;background-color: rgb(255, 255, 255); font-size: 16px; color: rgb(51, 51, 51); font-family: -apple-system, system-ui, &amp;quot;Segoe UI&amp;quot;, Ubuntu, sans-serif, &amp;quot;Apple Color Emoji&amp;quot;, &amp;quot;Segoe UI Emoji&amp;quot;, &amp;quot;Segoe UI Symbol&amp;quot;, &amp;quot;Noto Color Emoji&amp;quot;;&quot;&gt;Settings:&amp;nbsp;&lt;/span&gt;&lt;/li&gt;&lt;ul style=&quot;box-sizing: border-box; margin: 0px; padding: 0px 0px 0px 2rem;&quot;&gt;&lt;li&gt;&lt;span style=&quot;background-color: initial;&quot;&gt;Allow&lt;/span&gt;&lt;/li&gt;&lt;li&gt;&lt;span style=&quot;background-color: initial;&quot;&gt;Deny&lt;/span&gt;&lt;/li&gt;&lt;li&gt;&lt;span style=&quot;background-color: initial;&quot;&gt;Inherit&lt;/span&gt;&lt;/li&gt;&lt;ul&gt;&lt;li&gt;Uses the ACL of an ancestor object to determine permissions on a target object.&lt;/li&gt;&lt;li&gt;If the inheritance chain ends with Inherit, the access is &quot;Deny&quot; by default.&lt;/li&gt;&lt;li&gt;Inheritance can also be broken,&lt;span style=&quot;background-color: initial;&quot;&gt;&amp;nbsp;&lt;/span&gt;&lt;/li&gt;&lt;/ul&gt;&lt;/ul&gt;&lt;/ul&gt;&lt;/div&gt;" style="rounded=0;whiteSpace=wrap;html=1;fontSize=14;" vertex="1" parent="0XYyC6NXQzkNfJko-G7M-9">
          <mxGeometry y="42.46153846153846" width="740" height="417.53846153846155" as="geometry" />
        </mxCell>
        <mxCell id="0XYyC6NXQzkNfJko-G7M-11" value="&lt;font style=&quot;font-size: 17px;&quot;&gt;Privilegies&lt;br&gt;&lt;/font&gt;" style="rounded=0;whiteSpace=wrap;html=1;" vertex="1" parent="0XYyC6NXQzkNfJko-G7M-9">
          <mxGeometry width="198.5383606557377" height="42.46153846153846" as="geometry" />
        </mxCell>
        <mxCell id="0XYyC6NXQzkNfJko-G7M-12" value="Contains" style="endArrow=none;html=1;rounded=0;fontSize=15;endFill=0;startArrow=openThin;startFill=0;" edge="1" parent="1" source="0XYyC6NXQzkNfJko-G7M-14" target="2sUulGhKF5afohLX6DZR-3">
          <mxGeometry width="50" height="50" relative="1" as="geometry">
            <mxPoint x="3245.3422647544726" y="1315.102272727273" as="sourcePoint" />
            <mxPoint x="3240.0006977612206" y="990" as="targetPoint" />
          </mxGeometry>
        </mxCell>
        <mxCell id="0XYyC6NXQzkNfJko-G7M-13" value="" style="group" vertex="1" connectable="0" parent="1">
          <mxGeometry x="2870" y="1650" width="460" height="330" as="geometry" />
        </mxCell>
        <mxCell id="0XYyC6NXQzkNfJko-G7M-14" value="&lt;div style=&quot;text-align: left; font-size: 17px;&quot;&gt;&lt;ul&gt;&lt;li style=&quot;box-sizing: border-box; margin-bottom: 12px;&quot;&gt;&lt;p style=&quot;box-sizing: border-box; margin: 0px;&quot;&gt;A record that defines all four privileges for one &lt;b&gt;principal&lt;/b&gt;&lt;/p&gt;&lt;/li&gt;&lt;/ul&gt;&lt;/div&gt;" style="rounded=0;whiteSpace=wrap;html=1;fontSize=14;" vertex="1" parent="0XYyC6NXQzkNfJko-G7M-13">
          <mxGeometry y="75.00000000000001" width="459.99999999999994" height="255.00000000000003" as="geometry" />
        </mxCell>
        <mxCell id="0XYyC6NXQzkNfJko-G7M-15" value="&lt;font style=&quot;font-size: 17px;&quot;&gt;&lt;span style=&quot;box-sizing: border-box; font-weight: bolder; color: rgb(51, 51, 51); font-family: -apple-system, &amp;quot;system-ui&amp;quot;, &amp;quot;Segoe UI&amp;quot;, Ubuntu, sans-serif, &amp;quot;Apple Color Emoji&amp;quot;, &amp;quot;Segoe UI Emoji&amp;quot;, &amp;quot;Segoe UI Symbol&amp;quot;, &amp;quot;Noto Color Emoji&amp;quot;; font-size: 16px; text-align: left; background-color: rgb(255, 255, 255);&quot;&gt;Access Control Entry (ACE)&lt;/span&gt;&lt;br&gt;&lt;/font&gt;" style="rounded=0;whiteSpace=wrap;html=1;" vertex="1" parent="0XYyC6NXQzkNfJko-G7M-13">
          <mxGeometry y="26.93877551020408" width="190" height="48.05877551020408" as="geometry" />
        </mxCell>
        <mxCell id="0XYyC6NXQzkNfJko-G7M-16" value="Contains" style="endArrow=none;html=1;rounded=0;fontSize=15;endFill=0;startArrow=openThin;startFill=0;" edge="1" parent="1" source="0XYyC6NXQzkNfJko-G7M-7" target="0XYyC6NXQzkNfJko-G7M-4">
          <mxGeometry width="50" height="50" relative="1" as="geometry">
            <mxPoint x="3950" y="961.8199999999997" as="sourcePoint" />
            <mxPoint x="4070" y="890" as="targetPoint" />
          </mxGeometry>
        </mxCell>
        <mxCell id="0XYyC6NXQzkNfJko-G7M-17" value="" style="group" vertex="1" connectable="0" parent="1">
          <mxGeometry x="4010" y="1240" width="350" height="300" as="geometry" />
        </mxCell>
        <mxCell id="0XYyC6NXQzkNfJko-G7M-8" value="&lt;font style=&quot;font-size: 17px;&quot;&gt;Users&lt;br&gt;&lt;/font&gt;" style="rounded=0;whiteSpace=wrap;html=1;" vertex="1" parent="0XYyC6NXQzkNfJko-G7M-17">
          <mxGeometry width="85.85" height="56.36" as="geometry" />
        </mxCell>
        <mxCell id="0XYyC6NXQzkNfJko-G7M-7" value="&lt;ul style=&quot;box-sizing: border-box; margin: 0px; padding: 0px 0px 0px 2rem; color: rgb(51, 51, 51); font-family: -apple-system, &amp;quot;system-ui&amp;quot;, &amp;quot;Segoe UI&amp;quot;, Ubuntu, sans-serif, &amp;quot;Apple Color Emoji&amp;quot;, &amp;quot;Segoe UI Emoji&amp;quot;, &amp;quot;Segoe UI Symbol&amp;quot;, &amp;quot;Noto Color Emoji&amp;quot;; font-size: 16px; text-align: left; background-color: rgb(255, 255, 255);&quot;&gt;&lt;li style=&quot;box-sizing: border-box; margin-bottom: 12px;&quot;&gt;&lt;p style=&quot;box-sizing: border-box; margin: 0px;&quot;&gt;Options&lt;/p&gt;&lt;/li&gt;&lt;ul&gt;&lt;li&gt;A name defined in the local user list&lt;/li&gt;&lt;li&gt;A name retrieved from LDAP (or AD)&lt;/li&gt;&lt;li&gt;A project principal name&lt;/li&gt;&lt;li&gt;&lt;span style=&quot;background-color: rgb(255, 255, 255); font-family: -apple-system, &amp;quot;system-ui&amp;quot;, &amp;quot;Segoe UI&amp;quot;, Ubuntu, sans-serif, &amp;quot;Apple Color Emoji&amp;quot;, &amp;quot;Segoe UI Emoji&amp;quot;, &amp;quot;Segoe UI Symbol&amp;quot;, &amp;quot;Noto Color Emoji&amp;quot;; font-size: 16px;&quot;&gt;Admin&lt;/span&gt;&lt;/li&gt;&lt;li&gt;A built-in user that is not restricted by any access controls except login&lt;/li&gt;&lt;/ul&gt;&lt;li&gt;The &lt;b&gt;&lt;i&gt;Project Principa&lt;/i&gt;&lt;/b&gt;l is a built-in user associated with a Project, for example: &quot;project: EC-Utilities&quot;.&lt;br&gt;&lt;/li&gt;&lt;/ul&gt;" style="rounded=0;whiteSpace=wrap;html=1;fontSize=14;" vertex="1" parent="0XYyC6NXQzkNfJko-G7M-17">
          <mxGeometry y="56.36000000000013" width="350" height="243.64" as="geometry" />
        </mxCell>
        <mxCell id="0XYyC6NXQzkNfJko-G7M-18" value="" style="group" vertex="1" connectable="0" parent="1">
          <mxGeometry x="3550" y="1240" width="330" height="300" as="geometry" />
        </mxCell>
        <mxCell id="0XYyC6NXQzkNfJko-G7M-4" value="&lt;div style=&quot;text-align: left;&quot;&gt;&lt;ul style=&quot;box-sizing: border-box; margin: 0px; padding: 0px 0px 0px 2rem; color: rgb(51, 51, 51); font-family: -apple-system, &amp;quot;system-ui&amp;quot;, &amp;quot;Segoe UI&amp;quot;, Ubuntu, sans-serif, &amp;quot;Apple Color Emoji&amp;quot;, &amp;quot;Segoe UI Emoji&amp;quot;, &amp;quot;Segoe UI Symbol&amp;quot;, &amp;quot;Noto Color Emoji&amp;quot;; font-size: 16px; background-color: rgb(255, 255, 255);&quot;&gt;&lt;li style=&quot;box-sizing: border-box; margin-bottom: 12px;&quot;&gt;&lt;p style=&quot;box-sizing: border-box; margin: 0px;&quot;&gt;Options&lt;/p&gt;&lt;/li&gt;&lt;ul&gt;&lt;li style=&quot;box-sizing: border-box; margin-bottom: 12px;&quot;&gt;&lt;p style=&quot;box-sizing: border-box; margin: 0px;&quot;&gt;A string defined in the local group list&lt;/p&gt;&lt;/li&gt;&lt;li style=&quot;box-sizing: border-box; margin-bottom: 12px;&quot;&gt;&lt;p style=&quot;box-sizing: border-box; margin: 0px;&quot;&gt;A group or distribution list retrieved from LDAP&lt;/p&gt;&lt;/li&gt;&lt;li style=&quot;box-sizing: border-box; margin-bottom: 12px;&quot;&gt;&lt;p style=&quot;box-sizing: border-box; margin: 0px;&quot;&gt;“Everyone”&lt;/p&gt;&lt;/li&gt;&lt;li style=&quot;box-sizing: border-box; margin-bottom: 12px;&quot;&gt;&lt;p style=&quot;box-sizing: border-box; margin: 0px;&quot;&gt;A built-in group that automatically includes all users&lt;/p&gt;&lt;/li&gt;&lt;/ul&gt;&lt;/ul&gt;&lt;/div&gt;" style="rounded=0;whiteSpace=wrap;html=1;fontSize=14;" vertex="1" parent="0XYyC6NXQzkNfJko-G7M-18">
          <mxGeometry y="50" width="330" height="250" as="geometry" />
        </mxCell>
        <mxCell id="0XYyC6NXQzkNfJko-G7M-5" value="&lt;font style=&quot;font-size: 17px;&quot;&gt;Group&lt;br&gt;&lt;/font&gt;" style="rounded=0;whiteSpace=wrap;html=1;" vertex="1" parent="0XYyC6NXQzkNfJko-G7M-18">
          <mxGeometry width="110" height="50" as="geometry" />
        </mxCell>
        <mxCell id="0XYyC6NXQzkNfJko-G7M-19" value="Define to" style="endArrow=none;html=1;rounded=0;fontSize=15;endFill=0;startArrow=openThin;startFill=0;" edge="1" parent="1" source="0XYyC6NXQzkNfJko-G7M-14" target="0XYyC6NXQzkNfJko-G7M-10">
          <mxGeometry width="50" height="50" relative="1" as="geometry">
            <mxPoint x="3410" y="1490" as="sourcePoint" />
            <mxPoint x="3030" y="879.9999999999991" as="targetPoint" />
          </mxGeometry>
        </mxCell>
        <mxCell id="0XYyC6NXQzkNfJko-G7M-20" value="Define to" style="endArrow=none;html=1;rounded=0;fontSize=15;endFill=0;startArrow=openThin;startFill=0;entryX=0;entryY=0.5;entryDx=0;entryDy=0;" edge="1" parent="1" source="0XYyC6NXQzkNfJko-G7M-14" target="0XYyC6NXQzkNfJko-G7M-4">
          <mxGeometry width="50" height="50" relative="1" as="geometry">
            <mxPoint x="3260" y="1361.8262411347514" as="sourcePoint" />
            <mxPoint x="3530" y="1443.2092198581558" as="targetPoint" />
          </mxGeometry>
        </mxCell>
        <mxCell id="0XYyC6NXQzkNfJko-G7M-21" value="Define to" style="endArrow=none;html=1;rounded=0;fontSize=15;endFill=0;startArrow=openThin;startFill=0;" edge="1" parent="1" source="0XYyC6NXQzkNfJko-G7M-14" target="0XYyC6NXQzkNfJko-G7M-7">
          <mxGeometry width="50" height="50" relative="1" as="geometry">
            <mxPoint x="3320" y="1790" as="sourcePoint" />
            <mxPoint x="4210" y="1670" as="targetPoint" />
            <Array as="points">
              <mxPoint x="4190" y="1770" />
            </Array>
          </mxGeometry>
        </mxCell>
        <mxCell id="0XYyC6NXQzkNfJko-G7M-22" value="" style="rounded=0;whiteSpace=wrap;html=1;fontSize=17;" vertex="1" parent="1">
          <mxGeometry x="490" y="3310" width="4170" height="60" as="geometry" />
        </mxCell>
        <mxCell id="0XYyC6NXQzkNfJko-G7M-23" value="" style="endArrow=classic;html=1;rounded=0;fontSize=15;" edge="1" parent="1" source="KL4kwilNAHB5f6T94Mk6-8" target="0XYyC6NXQzkNfJko-G7M-22">
          <mxGeometry width="50" height="50" relative="1" as="geometry">
            <mxPoint x="1270" y="2790" as="sourcePoint" />
            <mxPoint x="1270" y="2328.5365853658536" as="targetPoint" />
          </mxGeometry>
        </mxCell>
        <mxCell id="0XYyC6NXQzkNfJko-G7M-24" value="Template&lt;br&gt;Automates" style="edgeLabel;html=1;align=center;verticalAlign=middle;resizable=0;points=[];fontSize=15;" vertex="1" connectable="0" parent="0XYyC6NXQzkNfJko-G7M-23">
          <mxGeometry x="-0.157" y="-4" relative="1" as="geometry">
            <mxPoint as="offset" />
          </mxGeometry>
        </mxCell>
        <mxCell id="0XYyC6NXQzkNfJko-G7M-25" value="" style="endArrow=classic;html=1;rounded=0;fontSize=15;" edge="1" parent="1" source="2sUulGhKF5afohLX6DZR-3" target="0XYyC6NXQzkNfJko-G7M-29">
          <mxGeometry width="50" height="50" relative="1" as="geometry">
            <mxPoint x="1905" y="1098.2979608822307" as="sourcePoint" />
            <mxPoint x="1394.7256425813375" y="610" as="targetPoint" />
          </mxGeometry>
        </mxCell>
        <mxCell id="0XYyC6NXQzkNfJko-G7M-26" value="&lt;span style=&quot;font-size: 15px;&quot;&gt;Security&lt;/span&gt;" style="edgeLabel;html=1;align=center;verticalAlign=middle;resizable=0;points=[];fontSize=14;" vertex="1" connectable="0" parent="0XYyC6NXQzkNfJko-G7M-25">
          <mxGeometry x="0.0296" y="2" relative="1" as="geometry">
            <mxPoint as="offset" />
          </mxGeometry>
        </mxCell>
        <mxCell id="0XYyC6NXQzkNfJko-G7M-27" value="" style="rounded=0;whiteSpace=wrap;html=1;fontSize=17;" vertex="1" parent="1">
          <mxGeometry x="470" y="2070" width="120" height="60" as="geometry" />
        </mxCell>
        <mxCell id="0XYyC6NXQzkNfJko-G7M-29" value="" style="rounded=0;whiteSpace=wrap;html=1;fontSize=17;" vertex="1" parent="1">
          <mxGeometry x="2390" y="320" width="60" height="2840" as="geometry" />
        </mxCell>
      </root>
    </mxGraphModel>
  </diagram>
</mxfile>
